<svg width="1000" height="1000" viewBox="0 0 1000 1000" fill="none" xmlns="http://www.w3.org/2000/svg">
<g clip-path="url(#clip0_4_27)">
<path d="M647.091 734.818C762.73 734.818 738.827 880.443 739.936 1042.39H647.091V734.818Z" fill="#FDD2B2"/>
<path d="M676.064 828.065L647.091 876.67L661.59 1042.39H702.056C703.037 812.589 676.064 828.065 676.064 828.065Z" fill="#F3AB98"/>
<path d="M167.066 405.019C167.066 217.225 319.234 64.9841 506.937 64.9841C694.641 64.9841 846.809 217.225 846.809 405.019C846.857 455.619 835.595 505.588 813.847 551.271C792.099 596.953 760.416 637.192 721.117 669.042C714.143 674.718 706.949 680.111 699.533 685.218C622.882 733.9 526.049 733.9 438.632 726.111C430.146 724.837 421.686 723.231 413.29 721.382C379.742 713.989 347.265 702.58 317.259 685.945C309.844 681.373 302.653 676.435 295.688 671.132C288.688 665.799 281.968 660.106 275.557 654.076C269.492 648.442 263.636 642.587 257.987 636.51C199.45 573.664 166.953 490.923 167.066 405.019Z" fill="#FDD2B2"/>
<path d="M213.393 576.445C214.285 577.975 215.164 579.504 216.081 581.009C216.629 581.926 217.203 582.819 217.776 583.737C218.617 585.101 219.458 586.465 220.324 587.803C220.936 588.772 221.598 589.715 222.184 590.658C223.025 591.933 223.866 593.208 224.733 594.483C225.382 595.451 226.007 596.42 226.72 597.389C227.561 598.664 228.402 599.836 229.268 601.06C229.956 602.042 230.67 603.011 231.371 603.992C232.072 604.974 233.078 606.35 233.919 607.523C234.76 608.696 235.384 609.473 236.123 610.442C236.862 611.411 237.869 612.737 238.761 613.884C239.653 615.031 240.277 615.809 241.041 616.765C241.806 617.721 242.838 619.008 243.742 620.117C244.647 621.226 245.31 622.017 246.1 622.96C246.89 623.903 247.934 625.153 248.864 626.236C249.795 627.32 250.483 628.11 251.298 629.041L254.127 632.227C254.955 633.158 255.796 634.063 256.675 634.981C257.77 636.179 258.879 637.365 259.987 638.537L261.529 640.169C263.173 641.877 264.829 643.585 266.511 645.268L266.842 645.612C268.486 647.244 270.155 648.863 271.824 650.469L273.837 652.381C275.048 653.515 276.258 654.65 277.481 655.772L278.959 657.123C280.233 658.321 281.622 659.494 282.96 660.667C287.122 664.295 291.369 667.775 295.701 671.107C302.658 676.41 309.848 681.347 317.272 685.919C347.277 702.491 379.704 713.963 413.302 721.357C421.699 723.205 430.159 724.799 438.645 726.086C492.285 730.866 549.493 732.689 603.363 722.16C517.704 696.933 106.341 548.732 365.255 95.8709C361.79 97.4643 358.375 99.1087 354.986 100.817L354.234 101.187C352.68 101.964 351.125 102.767 349.584 103.583L348.309 104.259C343.519 106.808 338.779 109.447 334.128 112.2L332.982 112.876C331.504 113.755 330.039 114.648 328.573 115.553L327.465 116.241C322.912 119.088 318.431 122.033 314.023 125.075L312.647 126.031C311.258 127 309.895 127.969 308.531 128.95L307.691 129.549C304.913 131.58 302.169 133.637 299.46 135.719L298.67 136.331C297.396 137.325 296.122 138.345 294.847 139.378L293.357 140.576C292.083 141.608 290.808 142.641 289.534 143.699C286.846 145.93 284.196 148.224 281.584 150.544L280.131 151.819L276.704 154.942L275.048 156.446C271.412 159.845 267.857 163.317 264.383 166.861L262.625 168.658C261.618 169.703 260.612 170.749 259.618 171.807C259.032 172.431 258.446 173.081 257.872 173.693C256.123 175.563 254.398 177.458 252.7 179.379C252.126 180.029 251.54 180.653 250.967 181.342C250.062 182.374 249.17 183.42 248.278 184.465L246.354 186.747C245.488 187.779 244.622 188.812 243.806 189.857C243.118 190.698 242.43 191.552 241.755 192.406C240.392 194.102 239.054 195.797 237.729 197.505C237.041 198.398 236.353 199.29 235.677 200.195C235.002 201.1 234.148 202.222 233.397 203.254C232.645 204.287 232.033 205.103 231.371 206.033C230.708 206.964 229.931 208.009 229.23 209.003C228.024 210.703 226.835 212.424 225.663 214.166C225.026 215.097 224.389 216.053 223.764 216.996C223.14 217.939 222.363 219.112 221.675 220.183L219.776 223.127L217.636 226.582C217.088 227.462 216.54 228.341 216.005 229.221C214.871 231.082 213.775 232.956 212.679 234.83L211.125 237.583C210.437 238.794 209.749 240.018 209.074 241.241C208.564 242.172 208.054 243.103 207.557 244.033C206.742 245.55 205.939 247.08 205.137 248.609L203.608 251.592C202.792 253.224 201.977 254.843 201.174 256.487C200.754 257.367 200.32 258.259 199.9 259.151C199.237 260.541 198.626 261.943 197.951 263.345C197.556 264.187 197.173 265.028 196.791 265.895C195.848 267.994 194.927 270.118 194.026 272.268C193.746 272.931 193.478 273.607 193.198 274.27C192.523 275.889 191.86 277.508 191.211 279.139C190.866 279.993 190.535 280.847 190.204 281.689C189.567 283.295 188.93 284.914 188.356 286.533C188.089 287.234 187.821 287.935 187.567 288.636C186.768 290.871 185.982 293.106 185.209 295.341L184.496 297.508C183.935 299.208 183.387 300.907 182.852 302.607L182.088 305.042C181.489 307.005 180.903 308.968 180.342 310.944C180.215 311.364 180.087 311.785 179.973 312.219C179.31 314.564 178.673 316.918 178.062 319.281C177.858 320.033 177.679 320.797 177.488 321.55C177.042 323.321 176.609 325.093 176.214 326.878L175.679 329.109C175.131 331.531 174.596 333.953 174.099 336.387L173.908 337.369C173.475 339.536 173.05 341.703 172.634 343.87C172.494 344.648 172.366 345.413 172.226 346.19C171.895 348.09 171.576 350.014 171.283 351.926C171.181 352.577 171.067 353.201 170.977 353.864C170.595 356.35 170.251 358.848 169.92 361.359L169.729 363.017C169.474 365.043 169.245 367.083 169.028 369.123C168.952 369.887 168.862 370.652 168.786 371.43C168.582 373.571 168.391 375.726 168.213 377.88C168.213 378.326 168.136 378.76 168.111 379.155C167.924 381.704 167.758 384.275 167.614 386.867C167.614 387.543 167.614 388.231 167.525 388.906C167.44 390.912 167.363 392.913 167.295 394.91C167.295 395.663 167.295 396.415 167.295 397.167C167.295 399.78 167.193 402.406 167.193 405.032C167.193 405.032 167.193 405.121 167.193 405.159C167.193 407.989 167.193 410.794 167.295 413.598C167.295 414.567 167.372 415.536 167.397 416.504C167.461 418.378 167.525 420.252 167.614 422.126C167.614 423.26 167.754 424.382 167.818 425.517C167.92 427.212 168.009 428.908 168.136 430.616C168.225 431.89 168.34 433.025 168.442 434.223C168.582 435.829 168.71 437.436 168.875 439.029C168.99 440.304 169.143 441.502 169.27 442.738C169.449 444.281 169.614 445.836 169.805 447.378C169.958 448.653 170.137 449.928 170.302 451.139C170.506 452.643 170.71 454.16 170.939 455.664C171.13 456.939 171.334 458.214 171.538 459.488C171.767 460.967 172.01 462.459 172.264 463.937C172.494 465.212 172.723 466.487 172.965 467.761C173.233 469.227 173.513 470.693 173.793 472.146C174.074 473.6 174.316 474.696 174.583 475.971C174.889 477.424 175.195 478.864 175.526 480.305C175.857 481.745 176.087 482.854 176.393 484.04C176.724 485.48 177.081 486.908 177.437 488.323C177.794 489.738 178.062 490.809 178.38 492.032C178.762 493.46 179.145 494.875 179.54 496.29C179.871 497.565 180.215 498.737 180.572 499.948C180.979 501.363 181.4 502.766 181.846 504.168C182.292 505.57 182.585 506.577 182.967 507.788C183.349 508.999 183.859 510.58 184.318 511.969C184.776 513.359 185.107 514.353 185.515 515.538C185.999 516.928 186.484 518.317 186.98 519.707C187.401 520.867 187.809 522.04 188.255 523.2L189.834 527.368C190.28 528.502 190.714 529.65 191.109 530.784C191.669 532.174 192.243 533.576 192.816 534.965C193.275 536.062 193.721 537.171 194.192 538.267C194.791 539.695 195.466 541.097 196.039 542.512C196.511 543.557 196.97 544.615 197.441 545.66C198.103 547.139 198.804 548.592 199.48 550.045L200.856 552.977C201.633 554.583 202.436 556.164 203.238 557.758C203.646 558.561 204.028 559.376 204.449 560.18C206.895 564.947 209.443 569.651 212.093 574.291C212.463 574.89 212.934 575.668 213.393 576.445Z" fill="#F3AB98"/>
<path d="M167.066 405.019C167.066 217.225 319.234 64.9841 506.937 64.9841C694.641 64.9841 846.809 217.225 846.809 405.019C846.857 455.619 835.595 505.588 813.847 551.271C792.099 596.953 760.416 637.192 721.117 669.042C714.143 674.718 706.949 680.111 699.533 685.218C622.882 733.9 526.049 733.9 438.632 726.111C430.146 724.837 421.686 723.231 413.29 721.382C379.742 713.989 347.265 702.58 317.259 685.945C309.844 681.373 302.653 676.435 295.688 671.132C288.688 665.799 281.968 660.106 275.557 654.076C269.492 648.442 263.636 642.587 257.987 636.51C199.45 573.664 166.953 490.923 167.066 405.019Z" stroke="#592D3D" stroke-width="15.3" stroke-miterlimit="10"/>
<path d="M361.841 734.818C246.189 734.818 270.104 880.443 268.995 1042.39H361.841V734.818Z" fill="#FDD2B2"/>
<path d="M337.772 828.065L366.784 876.67L352.272 1042.39H311.844C310.812 812.589 337.772 828.065 337.772 828.065Z" fill="#F3AB98"/>
<path d="M659.156 1131.62H354.718C350.233 1131.61 345.932 1129.83 342.762 1126.65C339.592 1123.48 337.811 1119.18 337.811 1114.69V751.746C337.811 747.259 339.592 742.955 342.762 739.781C345.932 736.606 350.233 734.821 354.718 734.818H651.881C668.559 734.818 676.089 744.582 676.089 760.159V1114.64C676.096 1116.87 675.663 1119.07 674.815 1121.13C673.967 1123.19 672.72 1125.07 671.147 1126.64C669.574 1128.22 667.705 1129.47 665.647 1130.33C663.59 1131.18 661.384 1131.62 659.156 1131.62Z" fill="#FDD2B2"/>
<path d="M671.363 744.888C670.092 743.326 669.018 741.613 668.164 739.789C665.105 737.391 661.465 735.847 657.615 735.315C655.718 735.021 653.801 734.876 651.881 734.882H354.718C350.244 734.885 345.953 736.661 342.784 739.822C339.616 742.982 337.828 747.27 337.811 751.746C374.76 765.029 443.932 772.448 506.937 772.448C587.283 772.448 639.93 760.529 671.363 744.888Z" fill="#F3AB98"/>
<path d="M647.091 734.818C762.73 734.818 738.827 880.443 739.936 1042.39H676.064" stroke="#592D3D" stroke-width="12" stroke-miterlimit="10" stroke-linecap="square"/>
<path d="M361.841 734.818C246.189 734.818 270.104 880.443 268.995 1042.39H332.791" stroke="#592D3D" stroke-width="12" stroke-miterlimit="10" stroke-linecap="square"/>
<path d="M354.718 734.945L651.881 734.818" stroke="#592D3D" stroke-width="12" stroke-miterlimit="10"/>
<path d="M354.718 1131.62H503.306C364.236 1131.62 374.735 836.924 337.811 836.924V1114.64C337.804 1116.86 338.236 1119.07 339.083 1121.13C339.929 1123.19 341.173 1125.06 342.744 1126.64C344.314 1128.21 346.181 1129.46 348.235 1130.32C350.29 1131.17 352.493 1131.61 354.718 1131.62Z" fill="#F3AB98"/>
<path d="M330.166 865.006C329.924 860.328 330.026 855.65 330.23 850.984C330.434 846.319 330.829 841.615 331.325 836.962C331.58 834.617 331.835 832.284 332.154 829.939C332.472 827.593 332.778 825.26 333.237 822.915C334.14 818.06 335.678 813.346 337.811 808.893C339.943 813.346 341.481 818.06 342.385 822.915C342.843 825.26 343.175 827.593 343.468 829.939C343.761 832.284 344.041 834.617 344.296 836.962C344.78 841.641 345.162 846.319 345.379 850.984C345.596 855.65 345.698 860.341 345.455 865.006H330.166Z" fill="#592D3D"/>
<path d="M676.064 876.67V886.868C676.395 930.209 676.395 974.825 676.064 1017.85C676.064 1021.51 676.064 1025.14 676.064 1028.72V1114.65C676.069 1116.88 675.636 1119.08 674.788 1121.14C673.941 1123.19 672.697 1125.06 671.126 1126.64C669.556 1128.22 667.69 1129.47 665.636 1130.32C663.583 1131.17 661.381 1131.61 659.156 1131.62H354.718C350.233 1131.61 345.933 1129.83 342.762 1126.65C339.592 1123.48 337.811 1119.18 337.811 1114.69V1040.5C337.811 1037.3 337.811 1034.04 337.811 1030.75C337.492 986.297 337.492 941.682 337.811 896.518V865.006" stroke="#592D3D" stroke-width="12" stroke-miterlimit="10"/>
<path d="M668.419 876.67C668.177 871.354 668.292 866.026 668.496 860.698C668.7 855.369 669.095 850.054 669.579 844.725C669.834 842.061 670.101 839.397 670.407 836.733C670.713 834.068 671.031 831.417 671.49 828.753C672.378 823.266 673.913 817.905 676.064 812.78C678.215 817.905 679.751 823.266 680.638 828.753C681.097 831.417 681.428 834.081 681.721 836.733C682.014 839.384 682.295 842.061 682.549 844.725C683.033 850.054 683.428 855.369 683.632 860.698C683.836 866.026 683.951 871.354 683.709 876.67H668.419Z" fill="#592D3D"/>
<path d="M596.992 841.551C597.273 829.505 612.562 824.406 620.207 832.055C621.449 833.324 622.43 834.825 623.092 836.473C623.754 838.121 624.086 839.883 624.068 841.659C624.049 843.435 623.681 845.191 622.985 846.824C622.289 848.458 621.278 849.939 620.009 851.182C618.741 852.425 617.24 853.406 615.593 854.068C613.946 854.731 612.185 855.063 610.409 855.045C608.634 855.026 606.88 854.658 605.247 853.962C603.613 853.265 602.133 852.253 600.891 850.984C599.65 849.748 598.667 848.277 597.998 846.658C597.329 845.039 596.987 843.303 596.992 841.551Z" fill="#592D3D"/>
<path d="M389.858 841.169C389.591 830.78 401.058 825.681 408.703 829.505C418.896 833.329 418.896 847.351 408.703 853.725C403.606 856.274 398.51 853.725 393.732 850.564C392.5 849.33 391.523 847.865 390.859 846.253C390.194 844.64 389.854 842.913 389.858 841.169Z" fill="#592D3D"/>
<path d="M506.937 827.937C507.849 830.34 508.49 832.837 508.849 835.381C509.228 837.846 509.436 840.333 509.473 842.826L509.855 857.728C509.97 862.686 510.123 867.658 510.174 872.629L510.39 887.505C510.683 907.353 510.671 927.226 510.747 947.086C510.823 966.947 510.976 986.807 510.747 1006.67C510.632 1016.6 510.365 1026.53 510.072 1036.46C509.944 1041.42 509.702 1046.39 509.218 1051.35C508.785 1056.36 508.031 1061.33 506.963 1066.25C505.894 1061.33 505.141 1056.36 504.708 1051.35C504.224 1046.39 503.981 1041.42 503.854 1036.46C503.561 1026.53 503.293 1016.6 503.179 1006.67C502.924 986.807 503.179 966.947 503.179 947.086C503.179 927.226 503.179 907.378 503.408 887.518L503.625 872.604L504.045 857.715L504.466 842.826C504.513 840.333 504.726 837.846 505.103 835.381C505.437 832.84 506.052 830.343 506.937 827.937Z" fill="#F3AB98"/>
<path d="M411.659 893.242C413.548 892.343 415.549 891.7 417.609 891.329C419.576 890.96 421.57 890.747 423.572 890.692L435.485 890.271L459.311 889.749C475.186 889.507 491.049 889.443 506.937 889.405C522.826 889.366 538.701 889.201 554.577 889.405C562.514 889.519 570.452 889.787 578.403 890.08C582.365 890.22 586.34 890.463 590.303 890.934C594.327 891.381 598.31 892.139 602.216 893.203C598.312 894.274 594.328 895.029 590.303 895.46C586.34 895.944 582.365 896.186 578.403 896.314C570.452 896.607 562.514 896.862 554.577 896.977C538.701 897.219 522.826 896.977 506.937 896.977C491.049 896.977 475.173 896.977 459.285 896.786C451.347 896.709 443.41 896.454 435.485 896.148L423.572 895.715C421.574 895.661 419.585 895.448 417.621 895.077C415.561 894.733 413.556 894.116 411.659 893.242Z" fill="#F3AB98"/>
<path d="M433.561 933.243C435.065 932.525 436.673 932.047 438.326 931.828C439.853 931.612 441.398 931.548 442.938 931.637C445.983 931.764 449.029 931.841 452.074 931.904C458.164 932.045 464.254 932.096 470.345 932.121C482.614 932.121 494.668 932.223 506.988 931.853C519.309 931.484 531.528 931.305 543.785 931.356C549.913 931.356 556.042 931.522 562.158 931.662C565.237 931.704 568.311 931.903 571.37 932.261C574.513 932.608 577.616 933.262 580.633 934.212C577.686 935.369 574.629 936.224 571.51 936.761C568.472 937.308 565.404 937.674 562.323 937.857C556.182 938.303 550.041 938.686 543.912 938.903C531.63 939.361 519.36 939.31 507.116 939.476C500.987 939.476 494.871 939.757 488.666 939.604C482.461 939.451 476.32 939.438 470.166 939.208C464.012 938.979 457.833 938.469 451.691 937.832C448.608 937.488 445.55 937.105 442.48 936.685C440.929 936.495 439.404 936.136 437.931 935.614C436.35 935.078 434.872 934.276 433.561 933.243Z" fill="#F3AB98"/>
<path d="M429.127 978.483C430.638 977.593 432.281 976.948 433.994 976.571C435.591 976.2 437.222 975.99 438.861 975.946L448.583 975.538C455.068 975.309 461.566 975.118 468.051 975.016C481.022 974.825 493.992 974.825 506.937 974.825C519.882 974.825 532.878 974.608 545.849 974.825C552.334 974.939 558.819 975.207 565.305 975.5C568.558 975.61 571.803 975.891 575.026 976.342C578.346 976.797 581.614 977.57 584.786 978.649C581.624 979.708 578.369 980.463 575.064 980.905C571.838 981.367 568.588 981.652 565.33 981.759C558.845 982.052 552.36 982.32 545.874 982.435C532.904 982.69 519.921 982.511 506.95 982.435C493.98 982.358 481.009 982.358 468.038 982.116C461.553 981.989 455.055 981.759 448.57 981.491L438.848 981.02C437.209 980.97 435.578 980.757 433.981 980.382C432.272 980.013 430.633 979.372 429.127 978.483Z" fill="#F3AB98"/>
<path d="M567.904 848.601L514.225 804.788L609.313 734.945H404.562L499.649 804.788L445.971 848.601L398.026 776.578V876.619H620.054V770.255L567.904 848.601Z" fill="#F3AB98"/>
<path d="M655.576 734.104L601.133 734.232C600.851 739.989 600.243 745.726 599.311 751.415C598.712 754.145 597.972 756.843 597.094 759.497C594.113 767.77 575.103 774.794 569.713 780.823C567.927 782.829 566.012 784.715 563.98 786.47C531.91 809.67 480.945 810.945 449.971 785.731C446.631 782.813 443.596 779.562 440.912 776.03C435.523 768.942 420.017 761.256 417.851 751.887C417.237 749.114 416.777 746.31 416.475 743.486C416.167 740.607 416.014 737.713 416.016 734.818L358.413 734.104C353.928 734.104 349.626 735.886 346.453 739.058C343.28 742.23 341.496 746.532 341.493 751.02V1113.92C341.496 1118.41 343.28 1122.71 346.453 1125.89C349.626 1129.06 353.928 1130.84 358.413 1130.84H662.839C667.323 1130.84 671.623 1129.06 674.794 1125.88C677.965 1122.71 679.746 1118.41 679.746 1113.92V759.395C679.746 743.868 672.254 734.104 655.576 734.104Z" fill="white"/>
<path d="M650.709 734.104C731.667 734.104 763.494 789.415 751.237 1080.83C727.36 1089.37 680.001 1086.68 680.001 1086.68L650.709 734.104Z" fill="white"/>
<path d="M444.582 858.059L506.313 827.351L568.21 858.059L520.991 803.22L465.07 804.278L444.582 858.059Z" fill="#E2E2E2"/>
<path d="M679.746 827.351C679.746 827.351 650.709 935.117 655.143 1125.64L697.457 1086.12L702.018 910.744C694.857 818.67 679.746 827.351 679.746 827.351Z" fill="#E2E2E2"/>
<path d="M365.51 734.104C286.795 734.104 252.266 806.063 262.625 1047.03C291.191 1059.66 334.218 1054.14 334.218 1054.14L365.51 734.104Z" fill="white"/>
<path d="M260.956 988.196C261.177 1005.58 261.69 1024.06 262.497 1043.62C281.953 1044.55 318.164 1044.74 335.262 1043.62L340.588 989.05C326.866 987.444 282.259 986.922 260.956 988.196Z" fill="#E2E2E2"/>
<path d="M341.455 827.351L340.818 1053.86L323.808 1055.01C320.024 865.006 341.455 827.351 341.455 827.351Z" fill="#E2E2E2"/>
<path d="M624.806 741.09L529.668 810.958L583.359 854.783L659.067 741.026L624.806 741.09Z" fill="#E2E2E2"/>
<path d="M650.709 734.104C736.61 734.104 750.664 805.846 751.237 904.638V1080.83C751.237 1080.83 687.531 1087.88 680.001 1086.68L679.874 905.53" stroke="#592D3D" stroke-width="15.3" stroke-miterlimit="10" stroke-linecap="square"/>
<path d="M365.51 734.104C332.727 734.104 310.06 744.455 294.529 762.709C269.747 791.862 263.147 841.156 262.676 900.724V1058.5C278.042 1062.73 340.856 1053.86 340.856 1053.86L341.48 902.675" stroke="#592D3D" stroke-width="15.3" stroke-miterlimit="10" stroke-linecap="square"/>
<path d="M358.413 1130.84H506.937C367.816 1130.84 378.366 836.197 341.442 836.197V1113.92C341.444 1116.15 341.884 1118.35 342.738 1120.41C343.593 1122.47 344.844 1124.33 346.42 1125.9C347.997 1127.47 349.867 1128.72 351.925 1129.57C353.983 1130.41 356.188 1130.85 358.413 1130.84Z" fill="#E2E2E2"/>
<path d="M333.848 864.292C333.606 859.614 333.708 854.923 333.925 850.27C334.141 845.618 334.523 840.914 335.008 836.248C335.262 833.916 335.53 831.57 335.836 829.225C336.142 826.879 336.46 824.546 336.919 822.214C337.821 817.359 339.359 812.644 341.493 808.192C343.627 812.644 345.165 817.359 346.067 822.214C346.526 824.546 346.857 826.892 347.15 829.225C347.443 831.557 347.723 833.916 347.978 836.248C348.471 840.939 348.836 845.613 349.074 850.27C349.278 854.949 349.38 859.64 349.074 864.292H333.848Z" fill="#592D3D"/>
<path d="M679.746 875.905V886.103C680.078 929.444 680.078 974.06 679.746 1017.09C679.746 1020.75 679.746 1024.39 679.746 1027.97V1113.9C679.746 1118.38 677.965 1122.69 674.794 1125.86C671.623 1129.03 667.323 1130.81 662.839 1130.81H358.413C353.928 1130.81 349.626 1129.03 346.453 1125.86C343.28 1122.69 341.496 1118.39 341.493 1113.9V1030.02C341.162 985.583 341.162 940.968 341.493 895.791V864.292" stroke="#592D3D" stroke-width="15.3" stroke-miterlimit="10"/>
<path d="M672.102 875.905C671.86 870.577 671.974 865.249 672.178 859.933C672.382 854.617 672.777 849.276 673.274 843.961C673.529 841.296 673.783 838.632 674.089 835.968C674.395 833.304 674.713 830.64 675.185 827.975C676.065 822.489 677.597 817.127 679.746 812.003C681.906 817.124 683.441 822.487 684.32 827.975C684.779 830.64 685.123 833.304 685.403 835.968C685.684 838.632 685.977 841.296 686.231 843.961C686.728 849.276 687.111 854.605 687.314 859.933C687.518 865.261 687.646 870.577 687.391 875.905H672.102Z" fill="#592D3D"/>
<path d="M358.413 734.232L655.576 734.104" stroke="#592D3D" stroke-width="15.3" stroke-miterlimit="10"/>
<path d="M544.384 832.755L515.907 804.278L487.443 832.755L501.433 846.752L489.049 982.677L515.474 1003.29L542.766 982.677L530.394 846.752L544.384 832.755Z" fill="#E2E2E2"/>
<path d="M506.988 804.278V1130.84" stroke="#592D3D" stroke-width="6" stroke-miterlimit="10" stroke-linecap="square"/>
<path d="M506.988 804.278L535.465 823.832L506.988 852.323L478.524 823.832L506.988 804.278Z" fill="#633749"/>
<path d="M404.524 734.92C404.524 734.92 459.655 785.068 499.649 804.788C480.181 836.924 445.971 848.626 445.971 848.626L370.25 734.882L404.524 734.92Z" fill="white" stroke="#592D3D" stroke-width="15.3" stroke-miterlimit="10"/>
<path d="M609.351 734.92C609.351 734.92 559.176 787.439 514.225 804.788C526.967 830.64 567.904 848.601 567.904 848.601L643.625 734.856L609.351 734.92Z" fill="white" stroke="#592D3D" stroke-width="15.3" stroke-miterlimit="10"/>
<path d="M506.899 991.766C515.667 991.766 522.775 984.655 522.775 975.883C522.775 967.11 515.667 959.999 506.899 959.999C498.131 959.999 491.024 967.11 491.024 975.883C491.024 984.655 498.131 991.766 506.899 991.766Z" fill="black" stroke="white" stroke-width="24"/>
<path d="M506.899 991.766C515.667 991.766 522.775 984.655 522.775 975.883C522.775 967.11 515.667 959.999 506.899 959.999C498.131 959.999 491.024 967.11 491.024 975.883C491.024 984.655 498.131 991.766 506.899 991.766Z" fill="#5683FF"/>
<path d="M571.232 934.909H472.058L448.916 975.717L475.026 1005.72H518.717L536.037 975.717L489.248 975.766L497.467 962.907H587.491C594.651 950.424 585.632 934.909 571.232 934.909Z" fill="url(#paint0_linear_4_27)"/>
<path d="M439.93 965.45L456.222 937.451L463.235 925.391H463.317C463.627 923.957 463.773 922.458 463.773 920.942C463.773 911.31 457.462 903.113 448.606 900H448.541L426.296 938.38L425.301 940.091C418.777 951.353 426.899 965.45 439.93 965.45Z" fill="url(#paint1_linear_4_27)"/>
<path d="M448.623 900C457.478 903.129 463.79 911.327 463.79 920.942C463.79 922.474 463.627 923.957 463.333 925.391H551.514L536.037 900H448.623Z" fill="url(#paint2_linear_4_27)"/>
<path opacity="0.35" d="M451.199 900H448.623C457.478 903.129 463.79 911.327 463.79 920.942C463.79 922.474 463.627 923.957 463.333 925.391H465.894C466.203 923.957 466.35 922.458 466.35 920.942C466.366 911.327 460.039 903.129 451.199 900Z" fill="#5683FF"/>
<path d="M549.459 975.521L532.547 1004.56L525.274 1017.06H525.176C524.866 1018.56 524.703 1020.09 524.703 1021.68C524.703 1031.67 531.259 1040.17 540.441 1043.42H540.506L563.615 1003.6L579.892 975.521H549.459Z" fill="url(#paint3_linear_4_27)"/>
<path d="M480.13 973.754L506.555 994.366L533.847 973.754L521.105 833.814H492.871L480.13 973.754Z" fill="#633749"/>
<path d="M478.524 823.833L492.514 837.829L480.13 973.754L506.555 994.366L533.847 973.754L521.475 837.829L535.465 823.833" stroke="#592D3D" stroke-width="8" stroke-miterlimit="10"/>
<path d="M495.33 833.571C495.266 833.495 495.33 833.571 495.33 833.571L495.419 833.635C495.497 833.677 495.57 833.729 495.636 833.788L496.12 834.158C496.439 834.426 496.783 834.693 497.114 834.986C497.789 835.56 498.503 836.172 499.28 836.758C500.057 837.345 500.898 837.906 501.828 838.568C503.042 839.482 504.196 840.474 505.281 841.539C504.372 843.022 502.955 844.123 501.293 844.636C499.76 845.063 498.157 845.18 496.579 844.98C494.975 844.824 493.411 844.393 491.954 843.706C491.212 843.351 490.508 842.924 489.851 842.431C489.51 842.182 489.182 841.914 488.87 841.628C488.717 841.488 488.552 841.335 488.399 841.169L488.144 840.901L487.826 840.532L495.33 833.571Z" fill="#592D3D"/>
<path d="M247.641 497.577V481.095C245.652 470.304 246.504 459.181 250.113 448.819C251.303 445.438 252.8 442.174 254.585 439.067C258.854 427.964 270.321 419.041 281.788 415.217C299.625 410.118 321.285 412.667 335.301 426.69C353.138 445.81 350.59 473.855 351.163 497.59" stroke="#592D3D" stroke-width="12" stroke-miterlimit="10" stroke-linecap="round"/>
<path d="M664.049 498.075C661.068 464.141 666.164 416.976 710.083 412.451C713.525 412.139 716.987 412.139 720.429 412.451C730.794 413.351 740.699 417.14 749.02 423.388C771.954 442.509 766.858 473.102 766.794 498.125" stroke="#592D3D" stroke-width="12" stroke-miterlimit="10" stroke-linecap="round"/>
<path d="M434.491 560.358C434.491 536.266 579.384 539.886 579.384 560.358C579.384 579.581 571.751 598.017 558.165 611.61C544.578 625.203 526.151 632.839 506.937 632.839C487.723 632.839 469.296 625.203 455.71 611.61C442.124 598.017 434.491 579.581 434.491 560.358Z" fill="#592D3D"/>
<path d="M500.567 587.306C478.97 586.031 460.139 595.91 453.87 610.531C464.294 621.548 477.909 629.016 492.799 631.881C507.689 634.747 523.102 632.866 536.866 626.504C539.729 625.182 542.5 623.671 545.161 621.978C543.989 603.992 524.852 588.81 500.567 587.306Z" fill="#F28195"/>
<path d="M434.491 560.358C434.491 536.266 579.384 539.886 579.384 560.358C579.384 579.581 571.751 598.017 558.165 611.61C544.578 625.203 526.151 632.839 506.937 632.839C487.723 632.839 469.296 625.203 455.71 611.61C442.124 598.017 434.491 579.581 434.491 560.358Z" stroke="#592D3D" stroke-width="6" stroke-miterlimit="10"/>
<path d="M479.06 573.87C479.633 573.73 479.862 573.666 480.232 573.602L481.187 573.424C481.812 573.309 482.461 573.245 483.048 573.194C484.271 573.069 485.501 573.027 486.73 573.067C489.221 573.121 491.697 573.468 494.107 574.1C499.155 575.379 503.731 578.077 507.294 581.875C510.647 585.483 512.893 589.979 513.767 594.827C514.563 599.298 513.958 603.907 512.034 608.02C509.396 604.285 507.371 600.933 505.255 598.128C504.303 596.784 503.26 595.506 502.134 594.304C501.105 593.248 499.949 592.323 498.694 591.551C496.315 590.125 493.662 589.217 490.909 588.886C489.464 588.7 488.009 588.598 486.551 588.581C485.8 588.581 485.048 588.581 484.309 588.644L483.226 588.721H482.729C482.602 588.721 482.347 588.721 482.436 588.721L479.06 573.87Z" fill="#592D3D"/>
<path d="M581.766 276.705C565.381 307.298 505.319 324.431 500.439 316.757C494.973 308.178 548.665 246.238 518.149 181.456" fill="#F3AB98"/>
<path d="M868.787 204.695C862.289 198.194 829.213 207.028 795.92 204.402C763.299 160.077 720.905 123.871 672.032 98.593C623.158 73.3154 569.119 59.6469 514.111 58.6487C511.002 32.5422 513.155 10.6168 510.785 7.53191C507.613 3.42728 491.049 23.6955 486.743 47.0486C471.568 27.9276 445.792 17.7298 445.053 23.0837C444.569 26.5 454.533 41.0446 463.923 61.1982C321.731 78.3688 205.175 178.805 164.403 312.32C146.744 327.515 130.18 338.249 130.002 345.068C129.658 357.714 180.087 357 202.091 355.037V354.96C279.367 352.411 430.159 337.394 503.319 262.045C496.286 286.38 483.328 304.315 485.825 308.139C489.648 314.092 534.649 301.524 549.62 278.515C610.778 303.487 727.347 333.532 828.653 257.915L828.372 257.367C846.834 241.93 876.878 212.853 868.787 204.695Z" fill="#A56941"/>
<path d="M795.971 212.05C789.091 212.356 782.389 212.19 775.585 211.872C768.782 211.553 762.093 211.017 755.365 210.265C752.002 209.896 748.638 209.501 745.287 208.991C741.936 208.481 738.572 208.073 735.234 207.423C728.432 206.199 721.778 204.26 715.383 201.635C722.067 199.923 728.889 198.806 735.769 198.296C739.12 198.015 742.471 197.824 745.822 197.684L755.862 197.25C762.551 196.97 769.228 196.817 775.891 196.677C782.555 196.537 789.244 196.524 795.793 196.677L795.971 212.05Z" fill="#592D3D"/>
<path d="M171.334 315.788C171.334 315.788 171.334 316.094 171.334 316.285L171.181 316.961L170.825 318.375C170.557 319.332 170.277 320.313 169.984 321.295C169.385 323.27 168.71 325.297 168.021 327.35C167.333 329.402 166.671 331.531 165.766 333.723C165.26 334.869 164.672 335.976 164.008 337.038C163.245 338.297 162.362 339.479 161.371 340.569C159.222 338.687 157.591 336.286 156.631 333.596C156.194 332.396 155.87 331.159 155.663 329.899C155.395 328.624 155.268 327.35 155.115 326.139C154.859 323.596 154.859 321.033 155.115 318.49C155.239 317.204 155.443 315.927 155.726 314.666C155.879 314.029 156.045 313.391 156.249 312.741C156.346 312.408 156.461 312.081 156.593 311.76C156.72 311.403 156.822 311.148 157.051 310.612L171.334 315.788Z" fill="#592D3D"/>
<path d="M202.091 355.075V354.999C223.751 354.285 251.311 352.577 281.265 348.829C284.616 277.546 309.296 193.847 365.255 95.8709L356.591 91.728C310.889 112.972 270.162 143.593 237.053 181.602C203.944 219.611 179.192 264.16 164.403 312.359C146.744 327.554 130.18 338.287 130.002 345.107C129.658 357.752 180.087 357.038 202.091 355.075Z" fill="#8D5638"/>
<path d="M868.787 204.695C862.289 198.194 829.213 207.028 795.92 204.402C763.299 160.077 720.905 123.871 672.032 98.593C623.158 73.3154 569.119 59.6469 514.111 58.6487C511.002 32.5422 513.155 10.6168 510.785 7.53191C507.613 3.42728 491.049 23.6955 486.743 47.0486C471.568 27.9276 445.792 17.7298 445.053 23.0837C444.569 26.5 454.533 41.0446 463.923 61.1982C321.731 78.3688 205.175 178.805 164.403 312.32C146.744 327.515 130.18 338.249 130.002 345.068C129.658 357.714 180.087 357 202.091 355.037V354.96C279.367 352.411 430.159 337.394 503.319 262.045C496.286 286.38 483.328 304.315 485.825 308.139C489.648 314.092 534.649 301.524 549.62 278.515C610.778 303.487 727.347 333.532 828.653 257.915L828.372 257.367C846.834 241.93 876.878 212.853 868.787 204.695Z" stroke="#592D3D" stroke-width="15.3" stroke-miterlimit="10"/>
<path d="M514.493 79.0826C496.344 80.1285 478.272 82.2312 460.368 85.3798C455.934 86.2339 451.513 87.1772 447.066 87.993C442.62 88.8089 438.275 90.0454 433.879 91.0651L420.807 94.5324C416.475 95.8071 412.181 97.1838 407.875 98.5096C390.696 104.052 373.911 110.751 357.636 118.561C341.283 126.503 325.432 135.443 310.175 145.33C323.764 132.93 338.767 122.173 354.871 113.284C370.988 104.28 387.957 96.8976 405.53 91.2436C409.964 89.9689 414.373 88.5794 418.806 87.3557C423.24 86.1319 427.725 85.0356 432.248 84.0413C436.772 83.0471 441.295 82.2567 445.831 81.4919C450.366 80.727 454.94 80.1279 459.502 79.5543C477.755 77.3078 496.204 77.1496 514.493 79.0826Z" fill="white"/>
<path d="M388.814 372.947H235.104C228.02 372.947 220.936 372.845 213.852 372.947H213.546C206.882 372.947 200.499 378.811 200.805 385.694C200.86 389.057 202.221 392.268 204.598 394.646C206.975 397.025 210.184 398.386 213.546 398.441H367.256C374.327 398.441 381.424 398.543 388.508 398.441H388.814C395.477 398.441 401.861 392.578 401.555 385.694C401.496 382.332 400.135 379.124 397.758 376.746C395.381 374.368 392.174 373.006 388.814 372.947Z" fill="#592D3D"/>
<path d="M795.296 372.947H641.586C634.502 372.947 627.418 372.845 620.334 372.947H620.028C613.365 372.947 606.981 378.811 607.287 385.694C607.343 389.057 608.703 392.268 611.08 394.646C613.458 397.025 616.666 398.386 620.028 398.441H773.738C780.822 398.441 787.906 398.543 794.99 398.441H795.296C801.96 398.441 808.343 392.578 808.037 385.694C807.979 382.332 806.617 379.124 804.24 376.746C801.864 374.368 798.657 373.006 795.296 372.947Z" fill="#592D3D"/>
</g>
<defs>
<linearGradient id="paint0_linear_4_27" x1="547.485" y1="918.269" x2="491.535" y2="1015.24" gradientUnits="userSpaceOnUse">
<stop stop-color="#5683FF"/>
<stop offset="1" stop-color="#5683FF"/>
</linearGradient>
<linearGradient id="paint1_linear_4_27" x1="429.916" y1="910.759" x2="456.09" y2="956.125" gradientUnits="userSpaceOnUse">
<stop offset="0.3" stop-color="#5683FF"/>
<stop offset="1" stop-color="#5683FF"/>
</linearGradient>
<linearGradient id="paint2_linear_4_27" x1="516.928" y1="883.518" x2="485.413" y2="938.142" gradientUnits="userSpaceOnUse">
<stop offset="0.5" stop-color="#5683FF"/>
<stop offset="1" stop-color="#5683FF"/>
</linearGradient>
<linearGradient id="paint3_linear_4_27" x1="567.466" y1="1027.86" x2="540.31" y2="980.79" gradientUnits="userSpaceOnUse">
<stop offset="0.3" stop-color="#5683FF"/>
<stop offset="1" stop-color="#5683FF"/>
</linearGradient>
<clipPath id="clip0_4_27">
<rect width="1000" height="1000" fill="white"/>
</clipPath>
</defs>
</svg>
